<svg width="51" height="38" viewBox="0 0 51 38" fill="none" xmlns="http://www.w3.org/2000/svg">
<path d="M49.8034 11.0833H43.8398L42.1823 6.96667C40.479 2.73422 36.4139 0 31.8249 0H19.1745C14.5865 0 10.5204 2.73422 8.81608 6.96667L7.15857 11.0833H1.19595C0.417998 11.0833 -0.152765 11.8097 0.0364933 12.5588L0.63415 14.9338C0.766631 15.4622 1.24476 15.8333 1.7936 15.8333H3.79277C2.45501 16.9941 1.59339 18.6814 1.59339 20.5833V25.3333C1.59339 26.9285 2.20698 28.3684 3.18714 29.4827V34.8333C3.18714 36.5819 4.61455 38 6.37465 38H9.56215C11.3223 38 12.7497 36.5819 12.7497 34.8333V31.6667H38.2497V34.8333C38.2497 36.5819 39.6771 38 41.4372 38H44.6247C46.3848 38 47.8122 36.5819 47.8122 34.8333V29.4827C48.7924 28.3694 49.406 26.9295 49.406 25.3333V20.5833C49.406 18.6814 48.5443 16.9941 47.2076 15.8333H49.2067C49.7556 15.8333 50.2337 15.4622 50.3662 14.9338L50.9638 12.5588C51.1521 11.8097 50.5813 11.0833 49.8034 11.0833ZM14.7349 9.31891C15.461 7.51589 17.2191 6.33333 19.1745 6.33333H31.8249C33.7802 6.33333 35.5383 7.51589 36.2645 9.31891L38.2497 14.25H12.7497L14.7349 9.31891ZM9.56215 25.3135C7.64965 25.3135 6.37465 24.0508 6.37465 22.1568C6.37465 20.2627 7.64965 19 9.56215 19C11.4747 19 14.3434 21.8411 14.3434 23.7352C14.3434 25.6292 11.4747 25.3135 9.56215 25.3135ZM41.4372 25.3135C39.5247 25.3135 36.6559 25.6292 36.6559 23.7352C36.6559 21.8411 39.5247 19 41.4372 19C43.3497 19 44.6247 20.2627 44.6247 22.1568C44.6247 24.0508 43.3497 25.3135 41.4372 25.3135Z" fill="#9E9E9E"/>
</svg>
