<svg width="40" height="40" viewBox="0 0 40 40" fill="none" xmlns="http://www.w3.org/2000/svg">
<path d="M19.75 12.5C21.8211 12.5 23.5 10.8211 23.5 8.75C23.5 6.67893 21.8211 5 19.75 5C17.6789 5 16 6.67893 16 8.75C16 10.8211 17.6789 12.5 19.75 12.5Z" fill="#C4C4C4"/>
<path d="M19.75 21.5C21.8211 21.5 23.5 19.8211 23.5 17.75C23.5 15.6789 21.8211 14 19.75 14C17.6789 14 16 15.6789 16 17.75C16 19.8211 17.6789 21.5 19.75 21.5Z" fill="#C4C4C4"/>
<path d="M19.75 31.5C21.8211 31.5 23.5 29.8211 23.5 27.75C23.5 25.6789 21.8211 24 19.75 24C17.6789 24 16 25.6789 16 27.75C16 29.8211 17.6789 31.5 19.75 31.5Z" fill="#C4C4C4"/>
<path d="M10 5C10 3.67392 10.5268 2.40215 11.4645 1.46447C12.4021 0.526784 13.6739 0 15 0L25 0C26.3261 0 27.5979 0.526784 28.5355 1.46447C29.4732 2.40215 30 3.67392 30 5H35C34.5825 6.25 33 9 30 10V15H35C34.5825 16.25 33 19 30 20V25H35C34.5825 26.25 33 29 30 30V32.5C30 33.8261 29.4732 35.0979 28.5355 36.0355C27.5979 36.9732 26.3261 37.5 25 37.5H15C13.6739 37.5 12.4021 36.9732 11.4645 36.0355C10.5268 35.0979 10 33.8261 10 32.5V30C7 29 5.4175 26.25 5 25H10V20C7 19 5.4175 16.25 5 15H10V10C7 9 5.4175 6.25 5 5H10ZM15 2.5C14.337 2.5 13.7011 2.76339 13.2322 3.23223C12.7634 3.70107 12.5 4.33696 12.5 5V32.5C12.5 33.163 12.7634 33.7989 13.2322 34.2678C13.7011 34.7366 14.337 35 15 35H25C25.663 35 26.2989 34.7366 26.7678 34.2678C27.2366 33.7989 27.5 33.163 27.5 32.5V5C27.5 4.33696 27.2366 3.70107 26.7678 3.23223C26.2989 2.76339 25.663 2.5 25 2.5H15Z" fill="black"/>
</svg>
